<svg xmlns="http://www.w3.org/2000/svg" viewBox="0 0 1004 344" role="img" aria-labelledby="title desc">
<title id="title">Docker deployment: entry points and stored data</title><desc id="desc">Use the console in a browser; applications call the gateway directly.；Applications connect directly to the gateway. Redis has no published host port in the default Compose stack.</desc>
<rect width="1004" height="344" rx="18" fill="#f2f7f0"/>
<g font-family="system-ui, -apple-system, PingFang SC, Microsoft YaHei, sans-serif" fill="#193d2f">
<text x="28" y="40" font-size="23" font-weight="700">Docker deployment: entry points and stored data</text>
<text x="28" y="70" font-size="14" fill="#50645a">Use the console in a browser; applications call the gateway directly.</text>
<rect x="28" y="104" width="216" height="170" rx="14" fill="white" stroke="#ccdccf"/><text x="46" y="133" font-size="12" fill="#146b50">01</text><text x="46" y="162" font-size="18" font-weight="700">Browser / app</text><text x="46" y="192" font-size="14" fill="#50645a">Browser: administration</text><text x="46" y="216" font-size="14" fill="#50645a">App: use a virtual key</text><text x="46" y="240" font-size="14" fill="#50645a">Check the port number</text><path d="M248 189h18m-6-6 6 6-6 6" fill="none" stroke="#146b50" stroke-width="2"/><rect x="272" y="104" width="216" height="170" rx="14" fill="white" stroke="#ccdccf"/><text x="290" y="133" font-size="12" fill="#146b50">02</text><text x="290" y="162" font-size="18" font-weight="700">Console · 3000</text><text x="290" y="192" font-size="14" fill="#50645a">Sign in and configure</text><text x="290" y="216" font-size="14" fill="#50645a">Models / keys / routing</text><text x="290" y="240" font-size="14" fill="#50645a">Server calls the gateway</text><path d="M492 189h18m-6-6 6 6-6 6" fill="none" stroke="#146b50" stroke-width="2"/><rect x="516" y="104" width="216" height="170" rx="14" fill="white" stroke="#ccdccf"/><text x="534" y="133" font-size="12" fill="#146b50">03</text><text x="534" y="162" font-size="18" font-weight="700">Gateway · 4000</text><text x="534" y="192" font-size="14" fill="#50645a">Application API: /v1</text><text x="534" y="216" font-size="14" fill="#50645a">Access / routing / costs</text><text x="534" y="240" font-size="14" fill="#50645a">Calls model providers</text><path d="M736 189h18m-6-6 6 6-6 6" fill="none" stroke="#146b50" stroke-width="2"/><rect x="760" y="104" width="216" height="170" rx="14" fill="white" stroke="#ccdccf"/><text x="778" y="133" font-size="12" fill="#146b50">04</text><text x="778" y="162" font-size="18" font-weight="700">Internal services</text><text x="778" y="192" font-size="14" fill="#50645a">PostgreSQL: config / usage</text><text x="778" y="216" font-size="14" fill="#50645a">Host database port: 5433</text><text x="778" y="240" font-size="14" fill="#50645a">Redis: shared state</text>
<text x="28" y="311" font-size="14" fill="#50645a">Applications connect directly to the gateway. Redis has no published host port in the default Compose stack.</text>
</g></svg>